<?xml version="1.0" encoding="utf-8"?>
<!-- Generator: Adobe Illustrator 24.3.0, SVG Export Plug-In . SVG Version: 6.00 Build 0)  -->
<svg version="1.1" id="Layer_1" xmlns="http://www.w3.org/2000/svg" xmlns:xlink="http://www.w3.org/1999/xlink" x="0px" y="0px"
	 viewBox="0 0 320 160" style="enable-background:new 0 0 320 160;" xml:space="preserve">
<style type="text/css">
	.st0{fill:url(#SVGID_1_);}
	.st1{fill:#D40A00;}
	.st2{fill:#FFFFFF;}
</style>
<g>
	
		<linearGradient id="SVGID_1_" gradientUnits="userSpaceOnUse" x1="1.7563" y1="82" x2="318.2437" y2="82" gradientTransform="matrix(1 0 0 -1 0 162)">
		<stop  offset="0" style="stop-color:#BDCCD4"/>
		<stop  offset="0.4592" style="stop-color:#E6E6E6"/>
		<stop  offset="0.9982" style="stop-color:#C0CED6"/>
	</linearGradient>
	<path class="st0" d="M38.1,48.1h270.6c0,0,12.1,0,9.1,11.5s-12.1,40.8-12.1,40.8s-4.5,11.5-19.7,11.5s-273.7,0-273.7,0
		s-15.1,0-9.1-14s16.6-38.3,16.6-38.3S24.5,48.1,38.1,48.1z"/>
	<path class="st1" d="M103.1,57.1h143.8c0,0,9.3-1.9,7.7,6.4s-6.7,31.3-6.7,31.3s-2.5,8.3-10.6,8.3s-148,0-148,0s-8.2,0-4.9-10.1
		s9-27.6,9-27.6S95.7,57.1,103.1,57.1z"/>
	<polygon points="10.8,95.4 24.8,95.4 28.6,89 35,89 35,82.6 31.2,82.6 36.3,72.4 37.6,95.4 49,95.4 47.8,63.5 28.6,63.5 	"/>
	<polygon class="st2" points="166.4,95.4 180.5,95.4 184.3,89 190.7,89 190.7,82.6 186.9,82.6 192,72.4 193.2,95.4 204.7,95.4 
		203.5,63.5 184.3,63.5 	"/>
	<polygon points="59.3,63.5 51.6,95.4 79.7,95.4 82.2,87.7 66.9,87.7 72,63.5 	"/>
	<polygon points="275.5,78.2 270.4,96.7 287.3,96.7 288.8,92.2 279.2,92.2 282.9,78.2 	"/>
	<polyline class="st2" points="130.7,63.5 98.8,63.5 102.6,68.6 93.7,95.4 121.8,95.4 124.3,89 110.3,89 112.8,83.9 124.3,83.9 
		126.9,76.2 114.1,76.2 116.7,71.1 128.2,71.1 130.7,63.5 	"/>
	<polygon class="st2" points="146,63.5 149.9,76.2 161.3,63.5 174.1,63.5 165.2,95.4 151.1,95.4 156.2,78.8 147.3,90.3 143.5,78.8 
		138.4,95.4 125.6,95.4 134.5,63.5 	"/>
	<path class="st2" d="M239.2,63.5h-29.4l3.8,6.4l-6.4,25.5h24.2c0,0,7.7,0,10.2-10.2S246.8,63.5,239.2,63.5z M230.2,81.3
		c-2.2,8.8-8.9,6.4-8.9,6.4l3.8-16.6C229,71.1,232.8,71.1,230.2,81.3z"/>
	<polygon points="266.1,78.2 261.7,92.2 258.8,92.2 259.5,90 252.9,90 250.7,96.7 268.4,96.7 273.5,78.2 	"/>
	<polygon points="305.5,78.2 301.9,78.2 294.5,78.2 287.9,78.2 286.4,82.7 293.2,82.7 288.9,96.6 296.6,96.6 300.7,82.7 304.1,82.7 
			"/>
</g>
</svg>
